<?xml version="1.0" encoding="utf-8"?>
<!-- Generator: Adobe Illustrator 26.0.2, SVG Export Plug-In . SVG Version: 6.00 Build 0)  -->
<svg version="1.1" id="Layer_1" xmlns="http://www.w3.org/2000/svg" xmlns:xlink="http://www.w3.org/1999/xlink" x="0px" y="0px"
	 viewBox="0 0 64 64" style="enable-background:new 0 0 64 64;" xml:space="preserve">
<style type="text/css">
	.st0{fill:#000000;}
</style>
<polyline class="st0" points="-119.5,-62 -119.5,-52.4 -109.2,-42.8 -109.6,-52.7 "/>
<polygon class="st0" points="-92.4,-9.3 -82.8,-9.3 -82.5,-23.7 "/>
<polyline class="st0" points="-92.4,-33 -92.4,-9.3 -82.8,-9.3 -82.5,-23.7 "/>
<rect x="-136.6" y="47.7" style="fill:none;" width="75.1" height="60.9"/>
<text transform="matrix(1 0 0 1 -136.5732 56.2148)" class="st0" style="font-family:'MyriadPro-Regular'; font-size:12px;">O</text>
<polyline class="st0" points="-99,34.2 -75.9,57.9 -99,57.6 "/>
<g>
	<path class="st0" d="M0,54.8l8.1-9.7c3.4,4.6,7.2,6.9,11.7,6.9c5.8,0,8.9-3.5,8.9-10.4V11.7H6.6V0h36.6v40.8
		c0,15.5-7.8,23.2-22.7,23.2C12,64,4.6,60.8,0,54.8z"/>
</g>
<rect x="52.1" y="52.1" class="st0" width="11.9" height="11.9"/>
</svg>
